# xmcd
#
# Track frame offsets:
#	182
#	22047
#	38970
#	57832
#	76727
#	93360
#	111260
#	124277
#	141557
#	154525
#	169040
#	181777
#	197660
#	214805
#
# Disc length: 3032
#
# Revision: 3
# Processed by: cddbd v1.5.1PL0 Copyright (c) Steve Scherf et al.
# Submitted via: CDex 1.30
# Normalized: r1:DSETVAR2,TDELIM( - ),TSWAP
#
DISCID=bd0bd60e
DTITLE=Various Artist - Country Friends
DYEAR=2001
DGENRE=Country
TTITLE0=Willie Nelson - City Of New Orleans
TTITLE1=Dolly Parton - Save The Last Dance For Me
TTITLE2=Ronnie Milsap - Lost In The Fifties Tonight
TTITLE3=Jimmy Buffett - Margaritaville
TTITLE4=Waylon Jennings - Rose In Paradise
TTITLE5=Lee Greenwood - The Wind Beneath My Wings
TTITLE6=Alabama - Here We Are
TTITLE7=Don Williams - Heartbeat In The Darkness
TTITLE8=Merle Haggard - Sea Of Heartbreak
TTITLE9=George Jones - She Loved A Lot In Her Time
TTITLE10=Charkey Pride - Mountain Of Love
TTITLE11=George Starit - The Chill Of An Early Fall
TTITLE12=Conway Twity - Julia
TTITLE13=Glen Campbell - I Remember You
EXTD=\nYEAR: 2001  ID3G:   2
EXTT0=
EXTT1=
EXTT2=
EXTT3=
EXTT4=
EXTT5=
EXTT6=
EXTT7=
EXTT8=
EXTT9=
EXTT10=
EXTT11=
EXTT12=
EXTT13=
PLAYORDER=
